<?xml version="1.0" encoding="UTF-8"?>
<svg version="1.2" baseProfile="tiny-ps" xmlns="http://www.w3.org/2000/svg" viewBox="0 0 1500 1500" width="1500" height="1500">
<title>l0rz</title>
<desc>l0rz brand logo</desc>
<path d="M0,0 L1500,0 L1500,1500 L0,1500 Z " fill="#853439" transform="translate(0,0)"/>
<path d="M0,0 L998,0 L998,623 L0,623 Z " fill="#853438" transform="translate(251,438)"/>
<path d="M0,0 L19,0 L34,4 L49,12 L61,23 L69,34 L69,36 L73,35 L88,35 L104,39 L118,46 L128,54 L137,64 L145,79 L149,94 L149,116 L145,131 L137,146 L126,158 L113,167 L102,172 L89,175 L-70,175 L-86,171 L-100,164 L-112,154 L-121,142 L-127,130 L-131,114 L-131,97 L-128,83 L-123,72 L-116,61 L-104,49 L-91,41 L-76,36 L-70,35 L-52,35 L-43,23 L-36,16 L-26,9 L-13,3 Z " fill="#E7D6CE" transform="translate(482,662)"/>
<path d="M0,0 L998,0 L998,623 L0,623 Z M12,11 L12,612 L986,612 L986,11 Z " fill="#FE5E30" transform="translate(251,438)"/>
<path d="M0,0 L52,0 L65,3 L75,8 L85,16 L94,28 L98,39 L99,43 L99,84 L96,94 L92,102 L84,112 L72,121 L58,126 L52,127 L0,127 L-16,123 L-28,116 L-37,107 L-43,97 L-47,86 L-48,79 L-48,48 L-46,38 L-41,26 L-34,17 L-25,9 L-13,3 Z " fill="#FE5E30" transform="translate(839,686)"/>
<path d="M0,0 L12,0 L23,4 L31,10 L34,13 L33,16 L25,23 L16,35 L10,49 L7,64 L6,70 L41,70 L42,61 L46,52 L52,44 L61,38 L70,35 L82,35 L92,38 L100,44 L107,52 L111,62 L111,78 L107,88 L98,98 L90,103 L83,105 L-70,105 L-81,101 L-89,95 L-95,87 L-99,76 L-99,65 L-96,56 L-90,47 L-83,41 L-75,37 L-64,35 L-61,53 L-60,59 L-30,48 L-27,48 L-29,40 L-29,30 L-26,20 L-20,11 L-13,5 L-4,1 Z " fill="#853438" transform="translate(485,697)"/>
<path d="M0,0 L51,0 L61,3 L69,9 L75,19 L76,23 L76,59 L72,68 L65,76 L56,80 L51,81 L0,81 L-11,77 L-19,70 L-24,60 L-25,56 L-25,25 L-21,14 L-14,6 L-4,1 Z " fill="#853439" transform="translate(839,709)"/>
<path d="M0,0 L84,0 L89,2 L93,6 L94,15 L91,20 L39,72 L93,73 L93,96 L8,96 L2,93 L-1,89 L-1,80 L6,72 L53,25 L54,23 L0,23 Z " fill="#FE5E30" transform="translate(1055,717)"/>
<path d="M0,0 L22,0 L22,104 L116,104 L116,127 L8,127 L2,123 L-1,116 L-1,1 Z " fill="#FE5E30" transform="translate(662,686)"/>
<path d="M0,0 L53,0 L54,1 L54,23 L0,24 L-5,26 L-6,28 L-7,95 L-8,96 L-30,96 L-30,24 L-26,15 L-19,7 L-10,2 Z " fill="#FE5E30" transform="translate(989,717)"/>
<path d="M0,0 L9,2 L13,7 L13,16 L8,22 L-36,51 L-55,64 L-62,65 L-68,62 L-71,58 L-72,51 L-69,45 L-26,16 L-3,1 Z " fill="#FE5E30" transform="translate(894,717)"/>
</svg>
